<?xml version="1.0" encoding="utf-8"?>
<!-- Generator: Adobe Illustrator 15.0.0, SVG Export Plug-In . SVG Version: 6.00 Build 0)  -->
<!DOCTYPE svg PUBLIC "-//W3C//DTD SVG 1.1//EN" "http://www.w3.org/Graphics/SVG/1.1/DTD/svg11.dtd">
<svg version="1.1" xmlns="http://www.w3.org/2000/svg" xmlns:xlink="http://www.w3.org/1999/xlink" x="0px" y="0px" width="500px"
	 height="500px" viewBox="0 0 500 500" enable-background="new 0 0 500 500" xml:space="preserve">
<g id="图层_2" display="none">
	
		<rect x="49.667" y="7.333" display="inline" fill="#E60012" stroke="#000000" stroke-miterlimit="10" width="416.667" height="417.335"/>
</g>
<g id="图层_1">
	<g>
		<g>
			<path fill="#FFFFFF" d="M232.771,132.625c-23.357,0-46.714,0-70.071,0c-8.151,0-15.324,5.941-15.324,14.458
				c0,1.239,0,2.479,0,3.718c0,8.283,0,16.565,0,24.847c0,58.986,0,117.973,0,176.959c0,7.158,0,14.316,0,21.475
				c0,9.614,6.312,16.266,16.053,16.266c22.781,0,45.563,0,68.344,0c30.076,0,60.152,0,90.228,0c6.375,0,12.751,0,19.126,0
				c7.947,0,14.635-6.503,14.635-14.504c0-1.417,0-2.833,0-4.249c0-54.67,0-109.339,0-164.008c0-19.69,0-39.38,0-59.07
				c0-4.638-1.333-8.727-4.702-12.097c-4.015-4.015-9.493-3.795-14.669-3.795c-14.666,0-29.333,0-43.999,0
				c-6.649,0-13.298,0-19.947,0c-6.771,0-6.771,10.5,0,10.5c22.855,0,45.712,0,68.567,0c5.859,0,4.25,9.144,4.25,12.929
				c0,10.196,0,20.393,0,30.589c0,58.211,0,116.421,0,174.632c0,4.856,0,9.713,0,14.569c0,5.948-12.044,4.004-15.63,4.004
				c-28.346,0-56.69,0-85.036,0c-25.792,0-51.584,0-77.376,0c-4.574,0-9.343,0.407-9.343-5.573c0-7.013,0-14.025,0-21.038
				c0-58.966,0-117.932,0-176.898c0-8.115,0-16.229,0-24.344c0-1.546,0-3.091,0-4.637c0-4.041,3.454-4.233,6.429-4.233
				c22.822,0,45.644,0,68.466,0C239.542,143.125,239.542,132.625,232.771,132.625L232.771,132.625z"/>
		</g>
	</g>
	<g>
		<g>
			<path fill="#FFFFFF" d="M264.332,133.63c-0.622,16.302-24.364,16.302-24.986,0c-0.269-7.04,5.81-12.398,12.494-12.658
				C258.922,120.697,264.079,127.001,264.332,133.63c0.258,6.749,10.759,6.774,10.5,0c-0.491-12.886-10.065-22.655-22.992-23.158
				c-12.915-0.502-22.531,11.028-22.994,23.158c-0.491,12.875,10.806,22.683,22.994,23.157
				c12.914,0.502,22.529-11.027,22.992-23.157C275.091,126.856,264.59,126.882,264.332,133.63z"/>
		</g>
	</g>
	<g>
		<g>
			<path fill="#FFFFFF" d="M201.993,160.965c33.231,0,66.462,0,99.694,0c6.771,0,6.771-10.5,0-10.5c-33.231,0-66.462,0-99.694,0
				C195.222,150.465,195.222,160.965,201.993,160.965L201.993,160.965z"/>
		</g>
	</g>
	<g>
		<g>
			<path fill="#FFFFFF" d="M201.721,180.38c33.231,0,66.463,0,99.695,0c9.028,0,9.028-14,0-14c-33.231,0-66.463,0-99.695,0
				C192.693,166.38,192.693,180.38,201.721,180.38L201.721,180.38z"/>
		</g>
	</g>
	<g>
		<g>
			<path fill="#FFFFFF" d="M215,218.396c35.669,0,71.339,0,107.008,0c6.771,0,6.771-10.5,0-10.5c-35.669,0-71.339,0-107.008,0
				C208.229,207.896,208.229,218.396,215,218.396L215,218.396z"/>
		</g>
	</g>
	<g>
		<g>
			<path fill="#FFFFFF" d="M215,259.807c35.669,0,71.339,0,107.008,0c6.771,0,6.771-10.5,0-10.5c-35.669,0-71.339,0-107.008,0
				C208.229,249.307,208.229,259.807,215,259.807L215,259.807z"/>
		</g>
	</g>
	<g>
		<g>
			<path fill="#FFFFFF" d="M215,301.218c35.669,0,71.339,0,107.008,0c6.771,0,6.771-10.5,0-10.5c-35.669,0-71.339,0-107.008,0
				C208.229,290.718,208.229,301.218,215,301.218L215,301.218z"/>
		</g>
	</g>
	<g>
		<g>
			<path fill="#FFFFFF" d="M215,342.629c35.669,0,71.339,0,107.008,0c6.771,0,6.771-10.5,0-10.5c-35.669,0-71.339,0-107.008,0
				C208.229,332.129,208.229,342.629,215,342.629L215,342.629z"/>
		</g>
	</g>
	<g>
		<g>
			<path fill="#FFFFFF" d="M183.473,211.469c0.051-0.945,0.726-1.621,1.671-1.671c0.747,0.147,0.835,0.148,0.265,0.005
				c0.416,0.091,0.766,0.294,1.05,0.611c-0.394-0.411-0.352-0.34,0.128,0.212c0.074,0.193,0.148,0.386,0.223,0.579
				c-0.144-0.571-0.142-0.482,0.005,0.265c-0.147,0.747-0.148,0.835-0.005,0.265c-0.09,0.416-0.294,0.766-0.611,1.05
				c0.411-0.394,0.34-0.351-0.212,0.128c-0.193,0.074-0.386,0.148-0.579,0.223c0.571-0.144,0.482-0.142-0.265,0.005
				c-0.747-0.147-0.835-0.148-0.264-0.005c-0.416-0.09-0.766-0.294-1.05-0.611c0.394,0.411,0.351,0.34-0.129-0.212
				c-0.074-0.193-0.148-0.386-0.223-0.579C183.622,212.305,183.62,212.216,183.473,211.469c0.154,2.856,2.272,5.25,5.25,5.25
				c2.745,0,5.404-2.39,5.25-5.25c-0.269-4.985-3.844-8.561-8.829-8.829c-4.974-0.268-8.582,4.246-8.829,8.829
				c-0.268,4.974,4.246,8.582,8.829,8.829c4.974,0.268,8.583-4.245,8.829-8.829c0.154-2.86-2.505-5.25-5.25-5.25
				C185.745,206.219,183.627,208.613,183.473,211.469z"/>
		</g>
	</g>
	<g>
		<g>
			<path fill="#FFFFFF" d="M183.473,253.136c0.051-0.945,0.726-1.62,1.671-1.671c0.747,0.146,0.835,0.148,0.265,0.005
				c0.416,0.091,0.766,0.294,1.05,0.61c-0.394-0.41-0.351-0.34,0.128,0.212c0.074,0.193,0.148,0.387,0.223,0.579
				c-0.144-0.57-0.142-0.482,0.005,0.265c-0.147,0.747-0.148,0.835-0.005,0.265c-0.09,0.416-0.294,0.766-0.611,1.05
				c0.411-0.395,0.34-0.352-0.212,0.128c-0.193,0.075-0.386,0.149-0.579,0.224c0.571-0.144,0.482-0.142-0.265,0.005
				c-0.747-0.146-0.835-0.148-0.264-0.005c-0.416-0.091-0.766-0.294-1.05-0.61c0.394,0.41,0.351,0.34-0.129-0.212
				c-0.074-0.193-0.148-0.387-0.223-0.579C183.622,253.971,183.62,253.883,183.473,253.136c0.154,2.856,2.272,5.25,5.25,5.25
				c2.745,0,5.404-2.39,5.25-5.25c-0.269-4.985-3.844-8.561-8.829-8.829c-4.974-0.268-8.582,4.246-8.829,8.829
				c-0.268,4.974,4.246,8.582,8.829,8.829c4.974,0.268,8.583-4.246,8.829-8.829c0.154-2.86-2.505-5.25-5.25-5.25
				C185.745,247.886,183.627,250.279,183.473,253.136z"/>
		</g>
	</g>
	<g>
		<g>
			<path fill="#FFFFFF" d="M183.473,294.547c0.051-0.945,0.726-1.621,1.671-1.672c0.747,0.146,0.835,0.148,0.265,0.005
				c0.416,0.091,0.766,0.294,1.05,0.611c-0.394-0.411-0.352-0.34,0.128,0.212c0.074,0.193,0.148,0.386,0.223,0.579
				c-0.144-0.57-0.142-0.482,0.005,0.265c-0.147,0.747-0.148,0.835-0.005,0.265c-0.09,0.416-0.294,0.766-0.611,1.05
				c0.411-0.395,0.34-0.352-0.212,0.128c-0.193,0.075-0.386,0.149-0.579,0.224c0.571-0.144,0.482-0.143-0.265,0.005
				c-0.747-0.146-0.835-0.148-0.264-0.005c-0.416-0.091-0.766-0.294-1.05-0.61c0.394,0.41,0.351,0.34-0.129-0.212
				c-0.074-0.193-0.148-0.387-0.223-0.579C183.622,295.382,183.62,295.294,183.473,294.547c0.154,2.856,2.272,5.25,5.25,5.25
				c2.745,0,5.404-2.39,5.25-5.25c-0.269-4.985-3.844-8.561-8.829-8.829c-4.974-0.268-8.582,4.246-8.829,8.829
				c-0.268,4.974,4.246,8.581,8.829,8.828c4.974,0.268,8.583-4.244,8.829-8.828c0.154-2.86-2.505-5.25-5.25-5.25
				C185.745,289.297,183.627,291.69,183.473,294.547z"/>
		</g>
	</g>
	<g>
		<g>
			<path fill="#FFFFFF" d="M183.473,335.958c0.051-0.945,0.726-1.621,1.671-1.672c0.747,0.147,0.835,0.148,0.265,0.005
				c0.416,0.091,0.766,0.294,1.05,0.611c-0.394-0.411-0.352-0.34,0.128,0.212c0.074,0.193,0.148,0.386,0.223,0.579
				c-0.144-0.57-0.142-0.482,0.005,0.265c-0.147,0.747-0.148,0.835-0.005,0.265c-0.09,0.416-0.294,0.766-0.611,1.05
				c0.411-0.395,0.34-0.352-0.212,0.128c-0.193,0.075-0.386,0.149-0.579,0.224c0.571-0.144,0.482-0.142-0.265,0.005
				c-0.747-0.146-0.835-0.148-0.264-0.005c-0.416-0.091-0.766-0.294-1.05-0.61c0.394,0.41,0.351,0.34-0.129-0.212
				c-0.074-0.193-0.148-0.387-0.223-0.579C183.622,336.793,183.62,336.705,183.473,335.958c0.154,2.856,2.272,5.25,5.25,5.25
				c2.745,0,5.404-2.39,5.25-5.25c-0.269-4.985-3.844-8.561-8.829-8.829c-4.974-0.268-8.582,4.246-8.829,8.829
				c-0.268,4.974,4.246,8.581,8.829,8.828c4.974,0.268,8.583-4.244,8.829-8.828c0.154-2.86-2.505-5.25-5.25-5.25
				C185.745,330.708,183.627,333.102,183.473,335.958z"/>
		</g>
	</g>
	<path fill="none" stroke="#FFFFFF" stroke-width="1.5" stroke-miterlimit="10" d="M391.666,172.38"/>
</g>
</svg>
